<?xml version="1.0" encoding="UTF-8" standalone="no"?>
<svg
   xmlns:dc="http://purl.org/dc/elements/1.1/"
   xmlns:cc="http://creativecommons.org/ns#"
   xmlns:rdf="http://www.w3.org/1999/02/22-rdf-syntax-ns#"
   xmlns:svg="http://www.w3.org/2000/svg"
   xmlns="http://www.w3.org/2000/svg"
   xmlns:sodipodi="http://sodipodi.sourceforge.net/DTD/sodipodi-0.dtd"
   xmlns:inkscape="http://www.inkscape.org/namespaces/inkscape"
   id="svg1"
   sodipodi:docname="BankIconMONO.svg"
   viewBox="0 0 61.148869 56.855472"
   sodipodi:version="0.32"
   _SVGFile__filename="oldscale/apps/apollon.svg"
   version="1.0"
   y="0"
   x="0"
   inkscape:version="0.92.3 (2405546, 2018-03-11)"
   width="61.148869"
   height="56.855473">
  <defs
     id="defs5234" />
  <sodipodi:namedview
     id="base"
     bordercolor="#666666"
     inkscape:pageshadow="2"
     inkscape:window-y="-8"
     pagecolor="#ffffff"
     inkscape:window-height="1138"
     inkscape:zoom="10.157365"
     inkscape:window-x="-8"
     borderopacity="1.0"
     inkscape:current-layer="text5884"
     inkscape:cx="18.321515"
     inkscape:cy="36.43193"
     inkscape:window-width="1920"
     inkscape:pageopacity="0.0"
     showgrid="true"
     showguides="false"
     inkscape:window-maximized="1">
    <inkscape:grid
       type="xygrid"
       id="grid5779"
       originx="5.6972104"
       originy="0.21945034" />
  </sodipodi:namedview>
  <g
     id="g1573"
     transform="matrix(0.92971,0,0,0.92971,5.1457167,-1.5858998)">
    <path
       id="rect836"
       style="fill:#000000;fill-opacity:1;fill-rule:evenodd;stroke:#000000;stroke-width:2.90413141;stroke-linecap:round;stroke-linejoin:bevel;stroke-miterlimit:4.4000001;stroke-dasharray:none;stroke-dashoffset:0"
       d="m 2.7443974,13.14595 c -0.4586,0 -0.8278,0.37 -0.8278,0.828 v 7.506 c 0,0.458 0.3692,0.828 0.8278,0.828 H 51.436398 c 0.459,0 0.828,-0.37 0.828,-0.828 v -7.506 c 0,-0.458 -0.369,-0.828 -0.828,-0.828 z"
       inkscape:connector-curvature="0" />
  </g>
  <g
     inkscape:groupmode="layer"
     id="layer1"
     inkscape:label="Roof"
     style="display:inline"
     sodipodi:insensitive="true"
     transform="translate(5.6972104,49.226233)">
    <path
       id="path837"
       style="fill:#000004;fill-opacity:1;fill-rule:evenodd;stroke:#000000;stroke-width:3.38691974;stroke-linecap:round;stroke-linejoin:bevel;stroke-miterlimit:4;stroke-dasharray:none"
       d="m -4.777938,-39.630591 h 59 L 25,-47.590211 Z"
       inkscape:connector-curvature="0" />
  </g>
  <g
     inkscape:groupmode="layer"
     id="layer4"
     inkscape:label="Roof2"
     sodipodi:insensitive="true"
     transform="translate(5.6972104,49.226233)" />
  <g
     inkscape:groupmode="layer"
     id="layer3"
     inkscape:label="Stairs"
     sodipodi:insensitive="true"
     transform="translate(5.6972104,49.226233)" />
  <g
     inkscape:groupmode="layer"
     id="layer2"
     inkscape:label="Pillars"
     style="display:inline"
     sodipodi:insensitive="true"
     transform="translate(5.6972104,49.226233)">
    <path
       id="path829"
       style="fill:none;stroke:#000000;stroke-width:5.22557306;stroke-linecap:round;stroke-linejoin:bevel"
       d="M 3,-2.5902114 V -25.590211"
       inkscape:connector-curvature="0" />
    <path
       id="path829-9"
       style="display:inline;fill:none;stroke:#000000;stroke-width:5.22557306;stroke-linecap:round;stroke-linejoin:bevel"
       d="M 13,-2.5902118 V -25.590211"
       inkscape:connector-curvature="0" />
    <path
       id="path829-2"
       style="display:inline;fill:none;stroke:#000000;stroke-width:5.22557306;stroke-linecap:round;stroke-linejoin:bevel"
       d="M 47,-2.5902114 V -25.590211"
       inkscape:connector-curvature="0" />
    <path
       id="path829-90"
       style="display:inline;fill:none;stroke:#000000;stroke-width:5.22557306;stroke-linecap:round;stroke-linejoin:bevel"
       d="M 37,-2.5902118 V -25.590211"
       inkscape:connector-curvature="0" />
    <path
       id="path829-95"
       style="display:inline;fill:none;stroke:#000000;stroke-width:5.22557306;stroke-linecap:round;stroke-linejoin:bevel"
       d="M 25,-2.5902114 V -25.590211"
       inkscape:connector-curvature="0" />
  </g>
  <g
     inkscape:groupmode="layer"
     id="layer6"
     inkscape:label="circle"
     transform="translate(5.6972104,49.226233)"
     sodipodi:insensitive="true">
    <ellipse
       style="fill:#ffffff;fill-opacity:1;stroke:#000000;stroke-width:2.20240784;stroke-linecap:round;stroke-linejoin:bevel;stroke-miterlimit:4;stroke-dasharray:none;stroke-dashoffset:0;stroke-opacity:1"
       id="path5887"
       cx="24.931084"
       cy="-38.626743"
       rx="8.7361031"
       ry="8.8837786" />
  </g>
  <g
     inkscape:groupmode="layer"
     id="layer5"
     inkscape:label="Money Symbol"
     transform="translate(5.6972104,49.226233)">
    <g
       id="g868">
      <g
         id="g863">
        <g
           aria-label="$"
           style="font-style:normal;font-variant:normal;font-weight:normal;font-stretch:normal;font-size:16px;line-height:125%;font-family:'Berlin Sans FB';-inkscape-font-specification:'Berlin Sans FB';letter-spacing:0px;word-spacing:0px;fill:#000000;fill-opacity:1;stroke:none;stroke-width:1px;stroke-linecap:butt;stroke-linejoin:miter;stroke-opacity:1"
           id="text5884">
          <path
             d="m 24.180838,-43.889233 v -0.367187 q 0,-0.3125 0.101562,-0.414063 0.101563,-0.101562 0.414063,-0.101562 h 0.65625 q 0.304687,0 0.40625,0.101562 0.101562,0.101563 0.101562,0.414063 v 0.375 q 0,0.25 0.07031,0.304687 0.07031,0.04688 0.515625,0.125 0.109375,0.02344 0.4375,0.125 0.140625,0.03906 0.21875,0.03906 0.07813,0 0.210937,-0.04688 0.328125,-0.117188 0.46875,-0.117188 0.414063,0 0.929688,0.695313 0.546875,0.734375 0.546875,1.429687 0,0.40625 -0.226563,0.65625 -0.226562,0.25 -0.585937,0.25 -0.265625,0 -0.4375,-0.109375 -0.164063,-0.117187 -0.882813,-0.773437 -0.703125,-0.648438 -1.523437,-0.648438 -0.351563,0 -0.578125,0.195313 -0.21875,0.1875 -0.21875,0.492187 0,0.421875 0.46875,0.671875 0.179687,0.101563 1.4375,0.476563 1.257812,0.382812 1.90625,0.960937 0.828125,0.75 0.828125,1.953125 0,1.226563 -0.882813,2.054688 -0.492187,0.46875 -1.148437,0.78125 -0.65625,0.3125 -1.234375,0.359375 -0.210938,0.01563 -0.265625,0.07813 -0.05469,0.0625 -0.05469,0.289062 v 0.359375 q 0,0.3125 -0.101562,0.414063 -0.101563,0.101562 -0.40625,0.101562 h -0.65625 q -0.3125,0 -0.414063,-0.101562 -0.101562,-0.101563 -0.101562,-0.414063 v -0.359375 q 0,-0.210937 -0.04688,-0.28125 -0.03906,-0.0625 -0.179688,-0.07813 -0.679687,-0.08594 -1.351562,-0.296875 -0.664063,-0.203125 -0.898438,-0.398437 -0.296875,-0.242188 -0.546875,-0.96875 -0.242187,-0.726563 -0.242187,-1.351563 0,-0.328125 0.148437,-0.515625 0.15625,-0.195312 0.40625,-0.195312 0.296875,0 0.609375,0.359375 0.08594,0.101562 0.53125,0.789062 0.296875,0.460938 0.828125,0.726563 0.539063,0.257812 1.171875,0.257812 0.507813,0 0.828125,-0.1875 0.328125,-0.1875 0.328125,-0.484375 0,-0.359375 -0.445312,-0.609375 -0.148438,-0.07813 -1.335938,-0.507812 -2.835937,-1.007813 -2.835937,-3.140625 0,-1.195313 0.976562,-2.09375 0.757813,-0.703125 1.710938,-0.890625 0.25,-0.04688 0.296875,-0.101563 0.04688,-0.05469 0.04688,-0.28125 z"
             style="font-style:normal;font-variant:normal;font-weight:normal;font-stretch:normal;font-family:'Cooper Black';-inkscape-font-specification:'Cooper Black, ';fill:#000000;fill-opacity:1"
             id="path870" />
        </g>
      </g>
    </g>
  </g>
  <metadata
     id="metadata5231">
    <rdf:RDF>
      <cc:Work>
        <dc:format>image/svg+xml</dc:format>
        <dc:type
           rdf:resource="http://purl.org/dc/dcmitype/StillImage" />
        <cc:license
           rdf:resource="http://creativecommons.org/licenses/publicdomain/" />
        <dc:publisher>
          <cc:Agent
             rdf:about="http://openclipart.org/">
            <dc:title>Openclipart</dc:title>
          </cc:Agent>
        </dc:publisher>
        <dc:title></dc:title>
      </cc:Work>
      <cc:License
         rdf:about="http://creativecommons.org/licenses/publicdomain/">
        <cc:permits
           rdf:resource="http://creativecommons.org/ns#Reproduction" />
        <cc:permits
           rdf:resource="http://creativecommons.org/ns#Distribution" />
        <cc:permits
           rdf:resource="http://creativecommons.org/ns#DerivativeWorks" />
      </cc:License>
    </rdf:RDF>
  </metadata>
  <path
     id="path828"
     style="fill:#000000;fill-opacity:1;fill-rule:evenodd;stroke:#000000;stroke-width:2.6193037;stroke-linecap:round;stroke-linejoin:miter;stroke-miterlimit:4;stroke-dasharray:none"
     d="M 5.6917938,50.636022 2.4387534,55.54582 H 58.69721 L 55.413043,50.636022 H 5.6923032 Z"
     inkscape:connector-curvature="0" />
</svg>
