<?xml version="1.0" ?><!DOCTYPE svg  PUBLIC '-//W3C//DTD SVG 1.1//EN'  'http://www.w3.org/Graphics/SVG/1.1/DTD/svg11.dtd'><!-- Uploaded to: SVG Repo, www.svgrepo.com, Generator: SVG Repo Mixer Tools -->
<svg fill="#000000" width="800px" height="800px" viewBox="0 0 32 32" style="fill-rule:evenodd;clip-rule:evenodd;stroke-linejoin:round;stroke-miterlimit:2;" version="1.1" xml:space="preserve" xmlns="http://www.w3.org/2000/svg" xmlns:serif="http://www.serif.com/" xmlns:xlink="http://www.w3.org/1999/xlink"><path d="M14.5,14.501l-10.502,0c-0.828,0 -1.5,0.673 -1.5,1.5c0,0.828 0.672,1.5 1.5,1.5l10.502,0l-0.001,10.502c0,0.828 0.672,1.5 1.5,1.501c0.828,-0 1.5,-0.673 1.5,-1.5l0.001,-10.503l10.502,0c0.828,0 1.5,-0.672 1.5,-1.5c0,-0.827 -0.672,-1.5 -1.5,-1.5l-10.502,0l0.001,-10.501c-0,-0.828 -0.672,-1.501 -1.5,-1.501c-0.828,0 -1.5,0.672 -1.5,1.5l-0.001,10.502Z"/><g id="Icon"/></svg>