<?xml version="1.0" encoding="UTF-8" standalone="no"?>
<!-- Created with Inkscape (http://www.inkscape.org/) -->

<svg
   xmlns:dc="http://purl.org/dc/elements/1.1/"
   xmlns:cc="http://creativecommons.org/ns#"
   xmlns:rdf="http://www.w3.org/1999/02/22-rdf-syntax-ns#"
   xmlns:svg="http://www.w3.org/2000/svg"
   xmlns="http://www.w3.org/2000/svg"
   xmlns:sodipodi="http://sodipodi.sourceforge.net/DTD/sodipodi-0.dtd"
   xmlns:inkscape="http://www.inkscape.org/namespaces/inkscape"
   width="70mm"
   height="70mm"
   viewBox="0 0 248.03149 248.03149"
   id="svg4526"
   version="1.1"
   inkscape:version="0.92.1 r15371"
   sodipodi:docname="user_helpdesk_contact.svg">
  <defs
     id="defs4528">
    <clipPath
       id="clipPath2560"
       clipPathUnits="userSpaceOnUse">
      <path
         inkscape:connector-curvature="0"
         id="path2562"
         sodipodi:nodetypes="cccccc"
         style="color:#000000;fill:none;stroke:#ffffff;stroke-width:1.82509995;stroke-linecap:square"
         d="M 14.03,17.05 13.895,40.132 54.664,80.961 77.765,57.847 36.965,17.026 14.03,17.05 Z" />
    </clipPath>
  </defs>
  <sodipodi:namedview
     id="base"
     pagecolor="#ffffff"
     bordercolor="#666666"
     borderopacity="1.0"
     inkscape:pageopacity="0.0"
     inkscape:pageshadow="2"
     inkscape:zoom="0.49497475"
     inkscape:cx="849.00289"
     inkscape:cy="-410.60441"
     inkscape:document-units="px"
     inkscape:current-layer="layer1"
     showgrid="false"
     inkscape:window-width="1920"
     inkscape:window-height="1017"
     inkscape:window-x="-8"
     inkscape:window-y="-8"
     inkscape:window-maximized="1" />
  <metadata
     id="metadata4531">
    <rdf:RDF>
      <cc:Work
         rdf:about="">
        <dc:format>image/svg+xml</dc:format>
        <dc:type
           rdf:resource="http://purl.org/dc/dcmitype/StillImage" />
        <dc:title></dc:title>
      </cc:Work>
    </rdf:RDF>
  </metadata>
  <g
     inkscape:label="Laag 1"
     inkscape:groupmode="layer"
     id="layer1"
     transform="translate(0,-804.33071)">
    <path
       style="opacity:1;fill:#030904;fill-opacity:1;fill-rule:nonzero;stroke:#000000;stroke-width:0.50507629;stroke-opacity:1"
       d="m 68.34222,1039.6865 c -2.2224,-0.2267 -4.7225,-0.6821 -5.5559,-1.012 -0.8334,-0.3299 -9.3384,-2.8569 -18.9001,-5.6157 -9.5617,-2.7588 -17.4523,-5.0834 -17.5347,-5.1657 -0.2391,-0.2392 2.2788,-42.51155 2.8639,-48.08132 2.2676,-21.58406 6.0483,-32.16101 14.8649,-41.58634 7.5909,-8.11487 14.9224,-11.77177 27.5448,-13.73911 5.5107,-0.85889 39.4433,-1.23111 47.6206,-0.52237 13.0001,1.12673 21.3056,3.10399 29.1231,6.93322 3.9457,1.93271 5.526,3.0883 9.1422,6.68524 9.4197,9.36932 13.7657,22.358 15.8544,47.38281 1.1656,13.96551 2.4884,42.59707 1.9903,43.07927 -0.9176,0.8884 -17.7367,5.5971 -23.3654,6.5414 -20.4406,3.4292 -70.2575,6.467 -83.6481,5.1006 z"
       id="path4293-4"
       inkscape:connector-curvature="0" />
    <ellipse
       style="opacity:1;fill:#000700;fill-opacity:1;fill-rule:nonzero;stroke:#000000;stroke-opacity:1"
       id="path4295-9"
       cx="98.88076"
       cy="880.07306"
       rx="40.658642"
       ry="38.327599" />
    <ellipse
       style="opacity:1;fill:#666666;fill-opacity:1;fill-rule:nonzero;stroke:#ffffff;stroke-width:7.51900005;stroke-miterlimit:4;stroke-dasharray:none;stroke-opacity:1"
       id="path4344-6"
       cx="186.85219"
       cy="955.37524"
       rx="52.857143"
       ry="50.714287" />
    <g
       style="fill:#ececec"
       id="g9"
       transform="matrix(1.9405193,0,0,1.6402328,157.28768,928.27673)" />
    <g
       style="fill:#ececec"
       id="g11"
       transform="matrix(1.9405193,0,0,1.6402328,157.28768,928.27673)" />
    <g
       style="fill:#ececec"
       id="g13"
       transform="matrix(1.9405193,0,0,1.6402328,157.28768,928.27673)" />
    <g
       style="fill:#ececec"
       id="g15"
       transform="matrix(1.9405193,0,0,1.6402328,157.28768,928.27673)" />
    <g
       style="fill:#ececec"
       id="g17"
       transform="matrix(1.9405193,0,0,1.6402328,157.28768,928.27673)" />
    <g
       style="fill:#ececec"
       id="g19"
       transform="matrix(1.9405193,0,0,1.6402328,157.28768,928.27673)" />
    <g
       style="fill:#ececec"
       id="g21"
       transform="matrix(1.9405193,0,0,1.6402328,157.28768,928.27673)" />
    <g
       style="fill:#ececec"
       id="g23"
       transform="matrix(1.9405193,0,0,1.6402328,157.28768,928.27673)" />
    <g
       style="fill:#ececec"
       id="g25"
       transform="matrix(1.9405193,0,0,1.6402328,157.28768,928.27673)" />
    <g
       style="fill:#ececec"
       id="g27"
       transform="matrix(1.9405193,0,0,1.6402328,157.28768,928.27673)" />
    <g
       style="fill:#ececec"
       id="g29"
       transform="matrix(1.9405193,0,0,1.6402328,157.28768,928.27673)" />
    <g
       style="fill:#ececec"
       id="g31"
       transform="matrix(1.9405193,0,0,1.6402328,157.28768,928.27673)" />
    <g
       style="fill:#ececec"
       id="g33"
       transform="matrix(1.9405193,0,0,1.6402328,157.28768,928.27673)" />
    <g
       style="fill:#ececec"
       id="g35"
       transform="matrix(1.9405193,0,0,1.6402328,157.28768,928.27673)" />
    <g
       style="fill:#ececec"
       id="g37"
       transform="matrix(1.9405193,0,0,1.6402328,157.28768,928.27673)" />
    <g
       id="g3936"
       transform="matrix(0.46792432,0,0,0.36656003,-67.152438,738.65975)">
      <path
         sodipodi:nodetypes="cc"
         inkscape:connector-curvature="0"
         id="path3930"
         d="m 247.37104,351.63798 c 26.0994,-150.03081 215.65345,-122.63387 213.68238,7.70027"
         style="color:#000000;display:inline;overflow:visible;visibility:visible;fill:none;stroke:#000000;stroke-width:10;stroke-linecap:round;stroke-linejoin:round;stroke-miterlimit:4;stroke-dasharray:none;stroke-dashoffset:0;stroke-opacity:1;marker:none;enable-background:accumulate" />
      <path
         sodipodi:nodetypes="ccccc"
         inkscape:connector-curvature="0"
         id="path3932"
         d="m 262.7678,350.64456 c -5.50422,18.03745 -6.68413,34.92623 -1.04583,50.00391 L 235.0534,388.9809 c -4.15866,-16.31969 -2.68757,-24.75772 -0.52291,-32.22476 l 28.23731,-8.88958"
         style="color:#000000;display:inline;overflow:visible;visibility:visible;fill:#000000;stroke:#000000;stroke-width:1.4693768px;stroke-linecap:round;stroke-linejoin:round;stroke-miterlimit:4;stroke-dasharray:none;stroke-dashoffset:0;stroke-opacity:1;marker:none;enable-background:accumulate" />
      <path
         style="color:#000000;display:inline;overflow:visible;visibility:visible;fill:#000000;stroke:#000000;stroke-width:1.4693768px;stroke-linecap:round;stroke-linejoin:round;stroke-miterlimit:4;stroke-dasharray:none;stroke-dashoffset:0;stroke-opacity:1;marker:none;enable-background:accumulate"
         d="m 445.12747,349.68203 c 5.50422,18.03745 6.68413,34.92623 1.04583,50.00391 l 26.66857,-11.66757 c 4.15866,-16.31969 2.68757,-24.75772 0.52291,-32.22476 l -28.23731,-8.88958"
         id="path3934"
         inkscape:connector-curvature="0"
         sodipodi:nodetypes="ccccc" />
    </g>
    <path
       style="color:#000000;display:inline;overflow:visible;visibility:visible;fill:none;stroke:#000000;stroke-width:3.19293046;stroke-linecap:round;stroke-linejoin:round;stroke-miterlimit:4;stroke-dasharray:none;stroke-dashoffset:0;stroke-opacity:1;marker:none;enable-background:accumulate"
       d="M 70.322623,917.7714 C 48.015651,911.40524 49.207238,923.00809 42.834764,881.2446"
       id="path3930-7-7-4"
       inkscape:connector-curvature="0"
       sodipodi:nodetypes="cc" />
    <path
       id="path559"
       style="fill:#ffffff;fill-rule:evenodd;stroke:#000000;stroke-width:1.05882025;stroke-linejoin:round"
       d="m 167.00892,937.73054 39.55727,0.22905 c 2.44332,0.0144 6.58066,0.5228 7.46089,3.32101 1.01674,3.67975 1.35555,20.24127 -0.28163,22.78956 -1.20694,2.05519 -2.3277,2.74058 -3.51915,3.32089 -3.52946,1.37929 -19.98994,1.14515 -19.98994,1.14515 l -20.97487,9.61948 13.51445,-9.73406 -17.03394,1.1e-4 c -2.39015,0 -4.57592,-1.22276 -5.34932,-3.89369 -1.34687,-4.85141 -1.60901,-18.45266 -0.28174,-21.64517 1.25776,-2.91621 3.37168,-5.17352 6.89787,-5.1531 z"
       inkscape:connector-curvature="0" />
    <ellipse
       style="fill:#000000;stroke-width:0.9375"
       id="path186"
       cx="62.739944"
       cy="916.9386"
       rx="9.7069349"
       ry="5.6821079" />
    <rect
       style="fill:#000000;stroke-width:0.9375"
       id="rect188"
       width="47.017147"
       height="7.1451211"
       x="163.25893"
       y="941.48053" />
    <rect
       style="fill:#000000;stroke-width:0.4484365"
       id="rect188-5"
       width="26.656263"
       height="2.8835402"
       x="163.25893"
       y="950.50067" />
  </g>
</svg>
